<?xml version="1.0" encoding="utf-8"?>
<!-- Generator: Adobe Illustrator 22.1.0, SVG Export Plug-In . SVG Version: 6.00 Build 0)  -->
<svg version="1.1" id="Слой_1" xmlns="http://www.w3.org/2000/svg" xmlns:xlink="http://www.w3.org/1999/xlink" x="0px" y="0px"
	 viewBox="0 0 130 166" style="enable-background:new 0 0 130 166;" xml:space="preserve">
<style type="text/css">
	.st0{fill:#FCFCFC;}
	.st1{fill:#E22727;}
	.st2{font-family:'KarminaBold';}
	.st3{font-size:94.3516px;}
	.st4{font-family:'SignPainter-HouseScript';}
	.st5{font-size:45.4861px;}
	.st6{letter-spacing:2.4;}
</style>
<path class="st0" d="M118.3,155.8c-17.7,0.1-35.4,0.2-53.3,0.2c-18,0-35.9-0.1-53.6-0.2c-1.9-29-2-61.2,1.1-95.9
	c0.9-9.9,2-19.6,3.3-28.9c34.2,0,68.4,0,102.5,0c1,11.5,1.8,23.5,2.2,35.8C121.7,98.9,120.6,128.7,118.3,155.8z"/>
<g>
	<path class="st1" d="M115,45.2c-30.3,0.3-60.7,0.6-91,0.9c-0.3,0.1-5.4,1.3-9.2-1.5c-3.2-2.5-4.1-6.9-1.8-10.6c1-5.5,2-11,3-16.4
		c0.3-1.3,0.9-3.6,3-5.2c4.1-3.2,10.8-2.1,13-1.7c19.7,2.9,62.4-3.3,82.9,0.9c1,0.2,2.7,0.6,4.1,1.7c3.6,2.9,1.2,6.9,2,16.4
		c0.5,6.2,1.9,8.3,0,11.2C119.5,43.2,116.9,44.5,115,45.2z"/>
</g>
<text transform="matrix(1 0 0 1 32 130.7148)" class="st2 st3">22</text>
<text transform="matrix(1.2471 0 0 1 28.7949 42.6631)" class="st4 st5 st6">FEB</text>
</svg>
