<?xml version="1.0" encoding="utf-8"?>
<!-- Generator: Adobe Illustrator 22.1.0, SVG Export Plug-In . SVG Version: 6.00 Build 0)  -->
<svg version="1.1" id="Слой_1" xmlns="http://www.w3.org/2000/svg" xmlns:xlink="http://www.w3.org/1999/xlink" x="0px" y="0px"
	 viewBox="0 0 1849 1890" style="enable-background:new 0 0 1849 1890;" xml:space="preserve">
<path d="M920,76C441.2,76,53,464.2,53,943s388.2,867,867,867s867-388.2,867-867S1398.8,76,920,76z M1704.8,1255
	c-65.3,171.9-208.9,358.2-304.8,336.2c-21.3-4.9-32.6-18.3-78.6-85.2c-97-141-117.5-184.2-160.6-246.4c0,0-207.9-300.4-201.8-323.7
	c1.1-4.4,2.8-8.6,2.8-8.6s0.8-2,1.7-4c3.4-7.2,217.2,7.3,285.5,8.7c131,2.7,266.7-32.1,329.6-48.2c90.8-23.3,112.6-37.7,138.1-21.3
	c69.5,44.6,44,239.3-6.2,376.9C1708.2,1246.3,1706.1,1251.6,1704.8,1255z"/>
</svg>
